<?xml version="1.0" encoding="utf-8"?>
<!-- Generator: Adobe Illustrator 26.0.0, SVG Export Plug-In . SVG Version: 6.00 Build 0)  -->
<svg version="1.1" xmlns="http://www.w3.org/2000/svg" xmlns:xlink="http://www.w3.org/1999/xlink" x="0px" y="0px"
	 viewBox="0 0 500 500" style="enable-background:new 0 0 500 500;" xml:space="preserve">
<style type="text/css">
	.st0{fill:url(#SVGID_1_);}
	.st1{fill:url(#SVGID_00000034788551635677747990000000552420512059392170_);}
	.st2{fill:url(#SVGID_00000093873939832738022750000004867724313801336204_);}
	.st3{fill:url(#SVGID_00000170963462325588611950000003239161474235755655_);}
	.st4{fill:url(#SVGID_00000063606087391156481590000014674425573981575859_);}
	.st5{fill:url(#SVGID_00000150095288718046064950000005723369296264355482_);}
	.st6{fill:url(#SVGID_00000122682677478991445480000011662871174295851961_);}
</style>
<g id="BACKGROUND">
</g>
<g id="OBJECTS">
	<g>
		<g>
			<linearGradient id="SVGID_1_" gradientUnits="userSpaceOnUse" x1="236.5887" y1="89.5669" x2="236.5887" y2="437.25">
				<stop  offset="0" style="stop-color:#1D4DDA"/>
				<stop  offset="0.3032" style="stop-color:#3887FE"/>
				<stop  offset="1" style="stop-color:#5100BD"/>
			</linearGradient>
			<path class="st0" d="M452.3,306.5c-111-5.7-200-94.7-205.6-205.6c-0.2-3.8-0.3-7.5-0.3-11.3H76.5c-37,0-67,30-67,67v152.2
				c0,37,30,67,67,67h44v49.7c0,9.4,10.6,15,18.4,9.7l86.3-59.4h171.4c37,0,67-30,67-67v-2C459.8,306.8,456.1,306.7,452.3,306.5z
				 M136.7,232.7c0,16.1-13.1,29.2-29.2,29.2s-29.2-13.1-29.2-29.2c0-16.1,13.1-29.2,29.2-29.2S136.7,216.6,136.7,232.7z
				 M185.8,232.7c0-16.1,13.1-29.2,29.2-29.2s29.2,13.1,29.2,29.2c0,16.1-13.1,29.2-29.2,29.2S185.8,248.8,185.8,232.7z"/>
			
				<linearGradient id="SVGID_00000018928534147112881860000017566327820832526484_" gradientUnits="userSpaceOnUse" x1="100.0889" y1="78.7019" x2="301.6935" y2="427.8914">
				<stop  offset="0" style="stop-color:#1D4DDA"/>
				<stop  offset="0.3032" style="stop-color:#3887FE"/>
				<stop  offset="1" style="stop-color:#5100BD"/>
			</linearGradient>
			<path style="fill:url(#SVGID_00000018928534147112881860000017566327820832526484_);" d="M246.7,100.9H76.5
				c-30.7,0-55.7,25-55.7,55.7v152.2c0,30.7,25,55.7,55.7,55.7h55.4v61c0,0.4,0.4,0.4,0.4,0.4l0.2-0.1l89.2-61.3h175
				c30.7,0,55.7-25,55.7-55.7v-2.3C341.3,300.9,252.4,211.9,246.7,100.9z M215,261.9c-16.1,0-29.2-13.1-29.2-29.2
				c0-16.1,13.1-29.2,29.2-29.2s29.2,13.1,29.2,29.2C244.1,248.8,231.1,261.9,215,261.9z M107.6,261.9c-16.1,0-29.2-13.1-29.2-29.2
				c0-16.1,13.1-29.2,29.2-29.2s29.2,13.1,29.2,29.2C136.7,248.8,123.7,261.9,107.6,261.9z"/>
			
				<linearGradient id="SVGID_00000101796447069643395210000012067916856637133982_" gradientUnits="userSpaceOnUse" x1="88.7206" y1="265.3211" x2="126.3935" y2="200.0697">
				<stop  offset="0" style="stop-color:#1D4DDA"/>
				<stop  offset="0.3032" style="stop-color:#3887FE"/>
				<stop  offset="1" style="stop-color:#5100BD"/>
			</linearGradient>
			<path style="fill:url(#SVGID_00000101796447069643395210000012067916856637133982_);" d="M107.6,195c-20.8,0-37.7,16.9-37.7,37.7
				c0,20.8,16.9,37.7,37.7,37.7c20.8,0,37.7-16.9,37.7-37.7C145.2,211.9,128.3,195,107.6,195z M107.6,261.9
				c-16.1,0-29.2-13.1-29.2-29.2c0-16.1,13.1-29.2,29.2-29.2s29.2,13.1,29.2,29.2C136.7,248.8,123.7,261.9,107.6,261.9z"/>
			
				<linearGradient id="SVGID_00000069381651659897515460000010658849428032644510_" gradientUnits="userSpaceOnUse" x1="196.11" y1="265.3197" x2="233.7848" y2="200.0651">
				<stop  offset="0" style="stop-color:#1D4DDA"/>
				<stop  offset="0.3032" style="stop-color:#3887FE"/>
				<stop  offset="1" style="stop-color:#5100BD"/>
			</linearGradient>
			<path style="fill:url(#SVGID_00000069381651659897515460000010658849428032644510_);" d="M215,195c-20.8,0-37.7,16.9-37.7,37.7
				c0,20.8,16.9,37.7,37.7,37.7c20.8,0,37.7-16.9,37.7-37.7C252.6,211.9,235.7,195,215,195z M215,261.9c-16.1,0-29.2-13.1-29.2-29.2
				c0-16.1,13.1-29.2,29.2-29.2s29.2,13.1,29.2,29.2C244.1,248.8,231.1,261.9,215,261.9z"/>
		</g>
		<g>
			
				<radialGradient id="SVGID_00000160911263956743369550000004144957438802449584_" cx="452.9622" cy="77.7352" r="39.6125" gradientUnits="userSpaceOnUse">
				<stop  offset="0" style="stop-color:#FFBF0B"/>
				<stop  offset="1" style="stop-color:#FB5507"/>
			</radialGradient>
			<circle style="fill:url(#SVGID_00000160911263956743369550000004144957438802449584_);" cx="463.6" cy="89.6" r="26.8"/>
			<g>
				
					<linearGradient id="SVGID_00000121236944210910403850000007531379547620031927_" gradientUnits="userSpaceOnUse" x1="288.9793" y1="83.5128" x2="446.0985" y2="285.6665">
					<stop  offset="0" style="stop-color:#FB5507"/>
					<stop  offset="0.3066" style="stop-color:#FE9C0A"/>
					<stop  offset="1" style="stop-color:#FF006C"/>
				</linearGradient>
				<path style="fill:url(#SVGID_00000121236944210910403850000007531379547620031927_);" d="M409.2,218.6
					c-25.1-10.6-46.5-28.4-61.6-50.7c-15.1-22.4-23.9-49.2-23.9-78.2h-42.5c0,25.1,5.1,49.2,14.3,71c13.9,32.8,37,60.6,66.1,80.3
					c29.1,19.7,64.3,31.2,102,31.2v-42.5C444.3,229.5,425.9,225.6,409.2,218.6z"/>
				
					<linearGradient id="SVGID_00000182510880515609640630000003428118822732641414_" gradientUnits="userSpaceOnUse" x1="366.6842" y1="82.7246" x2="457.7633" y2="199.9094">
					<stop  offset="0" style="stop-color:#FB5507"/>
					<stop  offset="0.3066" style="stop-color:#FE9C0A"/>
					<stop  offset="1" style="stop-color:#FF006C"/>
				</linearGradient>
				<path style="fill:url(#SVGID_00000182510880515609640630000003428118822732641414_);" d="M404.5,177.3
					c16.9,11.4,37.3,18.1,59.2,18.1v-38.8c0-1.3,0-2.5-0.1-3.7c-8.8,0-17-1.8-24.5-5c-11.3-4.8-21-12.8-27.9-22.9
					c-6.8-10.1-10.8-22.1-10.8-35.3c-1.2-0.1-2.5-0.1-3.7-0.1h-38.8c0,14.5,3,28.5,8.3,41.2C374.2,149.8,387.6,165.9,404.5,177.3z"
					/>
			</g>
		</g>
	</g>
</g>
<g id="TEXTS">
</g>
</svg>
